<?xml version="1.0" encoding="UTF-8"?>
<svg version="1.1" viewBox="0 0 1024 768" xmlns="http://www.w3.org/2000/svg" xmlns:cc="http://creativecommons.org/ns#" xmlns:dc="http://purl.org/dc/elements/1.1/" xmlns:rdf="http://www.w3.org/1999/02/22-rdf-syntax-ns#" xmlns:xlink="http://www.w3.org/1999/xlink">
<metadata>
<rdf:rdf>
<cc:work rdf:about="">
<dc:format>image/svg+xml</dc:format>
<dc:type rdf:resource="http://purl.org/dc/dcmitype/StillImage"/>
</cc:work>
</rdf:rdf>
</metadata>
<image transform="translate(0)" x="272" y="144" width="480" height="480" display="none" xlink:href=""/>
<g transform="translate(0)">
<image display="none" xlink:href=""/>
<g transform="translate(0)" fill="#e3b84e" stroke="#e3b84e" stroke-miterlimit="2" stroke-width="0" style="font-variant-ligatures:none">
<path transform="translate(340.18 364.72) scale(.75) translate(-283.68 50.904)" d="m284.04 0h0.72c0.216 0 0.36-0.144 0.36-0.36v-19.584h19.368v19.584c0.072 0.216 0.216 0.36 0.432 0.36h0.72c0.216 0 0.36-0.144 0.288-0.36v-37.944c-0.072-7.56-4.536-12.6-11.16-12.6s-11.088 5.04-11.088 12.6v37.944c0 0.216 0.144 0.36 0.36 0.36zm1.08-21.312v-16.992c0-6.84 3.888-11.232 9.648-11.232 5.976 0 9.72 4.392 9.72 11.232v16.992z" style="font-variant-ligatures:none"/>
<path transform="translate(364.27 375.52) scale(.75) translate(-315.8 36.504)" d="m342.58-36.504c-4.176 0-7.344 2.664-8.64 6.48-1.368-3.816-4.464-6.48-8.64-6.48-6.12 0-9.504 4.752-9.504 10.728v25.416c0 0.216 0.144 0.36 0.36 0.36h0.648c0.216 0 0.36-0.144 0.36-0.36v-25.416c0-5.256 2.736-9.432 8.136-9.432 4.68 0 7.92 4.176 7.92 9.288v25.56c0 0.216 0.144 0.36 0.36 0.36h0.648c0.216 0 0.36-0.144 0.36-0.36v-25.56c0-5.112 3.24-9.288 7.992-9.288 5.328 0 8.064 4.176 8.064 9.432v25.416c0 0.216 0.144 0.36 0.36 0.36h0.648c0.216 0 0.36-0.144 0.36-0.36v-25.416c0-5.976-3.384-10.728-9.432-10.728z" style="font-variant-ligatures:none"/>
<path transform="translate(398.07 375.52) scale(.75) translate(-360.86 36.504)" d="m370.65 0.504c6.624 0 9.936-4.608 10.08-10.296 0-0.144-0.144-0.288-0.36-0.288h-0.648c-0.216 0-0.36 0.144-0.36 0.36-0.144 4.968-2.88 8.928-8.712 8.928-5.76 0-8.424-4.176-8.424-9.504v-5.472h7.2c7.848 0 11.592-4.32 11.592-10.152s-4.176-10.584-10.08-10.584c-6.12 0-10.08 4.608-10.08 10.872v15.336c0 6.048 3.168 10.8 9.792 10.8zm-8.424-17.568v-8.568c0-5.544 3.312-9.576 8.712-9.576 5.184 0 8.712 4.176 8.712 9.288s-3.024 8.856-10.224 8.856z" style="font-variant-ligatures:none"/>
<path transform="translate(419.43 375.79) scale(.75) translate(-389.34 36.144)" d="m389.7 0h0.648c0.216 0 0.36-0.144 0.36-0.36v-24.48c0-5.976 3.96-10.008 9.432-10.008h2.16c0.216 0 0.36-0.144 0.36-0.36v-0.576c0-0.216-0.144-0.36-0.36-0.36h-2.16c-6.192 0-10.8 4.608-10.8 11.304v24.48c0 0.216 0.144 0.36 0.36 0.36z" style="font-variant-ligatures:none"/>
<path transform="translate(433.82 368.93) scale(.75) translate(-408.53 45.288)" d="m410.12-42.12c0.936 0 1.584-0.648 1.584-1.584s-0.648-1.584-1.584-1.584-1.584 0.648-1.584 1.584 0.648 1.584 1.584 1.584zm-0.36 42.12h0.648c0.216 0 0.36-0.144 0.36-0.36v-35.28c0-0.216-0.144-0.36-0.36-0.36h-0.648c-0.216 0-0.36 0.144-0.36 0.36v35.28c0 0.216 0.144 0.36 0.36 0.36z" style="font-variant-ligatures:none"/>
<path transform="translate(442.68 375.52) scale(.75) translate(-420.34 36.504)" d="m430.64 0.504c5.832 0 9.936-4.104 10.152-10.224 0-0.216-0.144-0.36-0.36-0.36h-0.648c-0.216 0-0.36 0.144-0.36 0.36-0.216 5.328-3.744 8.928-8.784 8.928-5.328 0-8.928-3.888-8.928-9.648v-14.616c0-6.12 3.456-10.152 8.712-10.152 4.968 0 8.424 3.168 8.64 7.848 0 0.216 0.144 0.36 0.36 0.36h0.648c0.216 0 0.36-0.144 0.36-0.36-0.216-5.472-4.248-9.144-10.008-9.144-6.048 0-10.08 4.608-10.08 11.448v14.616c0 6.552 4.104 10.944 10.296 10.944z" style="font-variant-ligatures:none"/>
<path transform="translate(462.93 368.93) scale(.75) translate(-447.35 45.288)" d="m448.93-42.12c0.936 0 1.584-0.648 1.584-1.584s-0.648-1.584-1.584-1.584-1.584 0.648-1.584 1.584 0.648 1.584 1.584 1.584zm-0.36 42.12h0.648c0.216 0 0.36-0.144 0.36-0.36v-35.28c0-0.216-0.144-0.36-0.36-0.36h-0.648c-0.216 0-0.36 0.144-0.36 0.36v35.28c0 0.216 0.144 0.36 0.36 0.36z" style="font-variant-ligatures:none"/>
<path transform="translate(472.17 375.9) scale(.75) translate(-459.66 36)" d="m460.02-36c-0.216 0-0.36 0.144-0.36 0.36v24.624c0 6.768 3.312 11.52 9.792 11.52s9.792-4.752 9.792-11.52v-24.624c0-0.216-0.144-0.36-0.36-0.36h-0.648c-0.216 0-0.36 0.144-0.36 0.36v24.624c0 6.048-2.664 10.224-8.424 10.224s-8.424-4.176-8.424-10.224v-24.624c0-0.216-0.144-0.36-0.36-0.36z" style="font-variant-ligatures:none"/>
<path transform="translate(493.89 375.52) scale(.75) translate(-488.63 36.504)" d="m515.41-36.504c-4.176 0-7.344 2.664-8.64 6.48-1.368-3.816-4.464-6.48-8.64-6.48-6.12 0-9.504 4.752-9.504 10.728v25.416c0 0.216 0.144 0.36 0.36 0.36h0.648c0.216 0 0.36-0.144 0.36-0.36v-25.416c0-5.256 2.736-9.432 8.136-9.432 4.68 0 7.92 4.176 7.92 9.288v25.56c0 0.216 0.144 0.36 0.36 0.36h0.648c0.216 0 0.36-0.144 0.36-0.36v-25.56c0-5.112 3.24-9.288 7.992-9.288 5.328 0 8.064 4.176 8.064 9.432v25.416c0 0.216 0.144 0.36 0.36 0.36h0.648c0.216 0 0.36-0.144 0.36-0.36v-25.416c0-5.976-3.384-10.728-9.432-10.728z" style="font-variant-ligatures:none"/>
<path transform="translate(527.2 364.72) scale(.75) translate(-533.04 50.904)" d="m544.27 0.504c6.84 0 11.16-4.968 11.16-11.232 0-14.76-20.592-16.056-20.592-28.944 0-6.12 4.032-9.864 9.432-9.864 5.328 0 9.216 3.744 9.36 10.152 0 0.216 0.144 0.36 0.36 0.36h0.72c0.216 0 0.36-0.144 0.36-0.36 0-7.056-4.752-11.52-10.8-11.52-6.264 0-10.872 4.464-10.872 11.232 0 13.968 20.592 14.904 20.592 28.944 0 5.544-3.6 9.864-9.72 9.864-5.976 0-9.648-4.32-9.792-10.152 0-0.216-0.144-0.36-0.36-0.36h-0.72c-0.216 0-0.36 0.144-0.36 0.36 0 6.624 4.392 11.52 11.232 11.52z" style="font-variant-ligatures:none"/>
<path transform="translate(549.73 375.52) scale(.75) translate(-563.07 36.504)" d="m573.3 0.504c6.408 0 10.224-4.752 10.224-10.944v-15.12c0-6.192-3.816-10.944-10.224-10.944s-10.224 4.752-10.224 10.944v15.12c0 6.192 3.816 10.944 10.224 10.944zm0-1.296c-5.544 0-8.856-4.248-8.856-9.648v-15.12c0-5.4 3.312-9.648 8.856-9.648s8.856 4.248 8.856 9.648v15.12c0 5.4-3.312 9.648-8.856 9.648z" style="font-variant-ligatures:none"/>
<path transform="translate(569.25 364.99) scale(.75) translate(-589.09 50.544)" d="m604.57-36h-8.64v-4.104c0-5.976 2.952-9.144 8.064-9.144 0.216 0 0.36-0.144 0.36-0.36v-0.576c0-0.216-0.144-0.36-0.36-0.36-5.976 0-9.432 3.672-9.432 10.44v4.104h-5.112c-0.216 0-0.36 0.144-0.36 0.36v0.648c0 0.216 0.144 0.36 0.36 0.36h5.112v34.272c0 0.216 0.144 0.36 0.36 0.36h0.648c0.216 0 0.36-0.144 0.36-0.36v-34.272h8.64c0.216 0 0.36-0.144 0.36-0.36v-0.648c0-0.216-0.144-0.36-0.36-0.36z" style="font-variant-ligatures:none"/>
<path transform="translate(583.59 368.34) scale(.75) translate(-608.22 46.08)" d="m623.7-1.152h-1.008c-5.04 0-7.704-3.24-7.704-9.36v-24.192h8.064c0.216 0 0.36-0.144 0.36-0.36v-0.576c0-0.216-0.144-0.36-0.36-0.36h-8.064v-9.72c0-0.216-0.144-0.36-0.36-0.36h-0.648c-0.216 0-0.36 0.144-0.36 0.36v9.72h-5.04c-0.216 0-0.36 0.144-0.36 0.36v0.576c0 0.216 0.144 0.36 0.36 0.36h5.04v24.192c0 6.984 3.096 10.656 9.072 10.656h1.008c0.216 0 0.36-0.144 0.36-0.36v-0.576c0-0.216-0.144-0.36-0.36-0.36z" style="font-variant-ligatures:none"/>
<path transform="translate(600.42 375.9) scale(.75) translate(-630.66 36)" d="m657.44 0.504c6.048 0 9.432-4.752 9.432-10.728v-25.416c0-0.216-0.144-0.36-0.36-0.36h-0.648c-0.216 0-0.36 0.144-0.36 0.36v25.416c0 5.256-2.736 9.432-8.064 9.432-4.752 0-7.992-4.176-7.992-9.288v-25.56c0-0.216-0.144-0.36-0.36-0.36h-0.648c-0.216 0-0.36 0.144-0.36 0.36v25.56c0 5.112-3.24 9.288-7.92 9.288-5.4 0-8.136-4.176-8.136-9.432v-25.416c0-0.216-0.144-0.36-0.36-0.36h-0.648c-0.216 0-0.36 0.144-0.36 0.36v25.416c0 5.976 3.384 10.728 9.504 10.728 4.176 0 7.272-2.664 8.64-6.48 1.296 3.816 4.464 6.48 8.64 6.48z" style="font-variant-ligatures:none"/>
<path transform="translate(633.83 375.52) scale(.75) translate(-675.21 36.504)" d="m685.94 0.504c6.192 0 9.648-4.32 9.648-11.16v-14.976c0-6.84-3.672-10.872-9.648-10.872-6.264 0-9.864 3.888-10.152 9.144 0 0.216 0.144 0.36 0.36 0.36h0.648c0.216 0 0.36-0.144 0.36-0.36 0.288-4.464 3.384-7.848 8.784-7.848 5.112 0 8.28 3.528 8.28 9.576v4.896h-7.632c-7.488 0-11.376 3.816-11.376 10.08 0 7.128 3.888 11.16 10.728 11.16zm0-1.296c-5.976 0-9.36-3.6-9.36-9.864 0-5.472 3.384-8.784 10.008-8.784h7.632v8.784c0 6.048-2.952 9.864-8.28 9.864z" style="font-variant-ligatures:none"/>
<path transform="translate(655.79 375.79) scale(.75) translate(-704.48 36.144)" d="m704.84 0h0.648c0.216 0 0.36-0.144 0.36-0.36v-24.48c0-5.976 3.96-10.008 9.432-10.008h2.16c0.216 0 0.36-0.144 0.36-0.36v-0.576c0-0.216-0.144-0.36-0.36-0.36h-2.16c-6.192 0-10.8 4.608-10.8 11.304v24.48c0 0.216 0.144 0.36 0.36 0.36z" style="font-variant-ligatures:none"/>
<path transform="translate(668.7 375.52) scale(.75) translate(-721.7 36.504)" d="m731.49 0.504c6.624 0 9.936-4.608 10.08-10.296 0-0.144-0.144-0.288-0.36-0.288h-0.648c-0.216 0-0.36 0.144-0.36 0.36-0.144 4.968-2.88 8.928-8.712 8.928-5.76 0-8.424-4.176-8.424-9.504v-5.472h7.2c7.848 0 11.592-4.32 11.592-10.152s-4.176-10.584-10.08-10.584c-6.12 0-10.08 4.608-10.08 10.872v15.336c0 6.048 3.168 10.8 9.792 10.8zm-8.424-17.568v-8.568c0-5.544 3.312-9.576 8.712-9.576 5.184 0 8.712 4.176 8.712 9.288s-3.024 8.856-10.224 8.856z" style="font-variant-ligatures:none"/>
</g>
<image display="none" xlink:href=""/>
</g>
</svg>
